<svg width="128" height="128" viewBox="0 0 128 128" fill="none" xmlns="http://www.w3.org/2000/svg">
<rect width="128" height="128" fill="#6C63FF"/>
<path d="M69 87H59L60.7868 76H67.2132L69 87Z" fill="#535461"/>
<path d="M64.137 112H63.863C62.5733 112 61.3364 111.528 60.4244 110.688C59.5124 109.848 59 108.708 59 107.52V87H69V107.52C69 108.708 68.4877 109.848 67.5757 110.688C66.6637 111.528 65.4267 112 64.137 112Z" fill="url(#paint0_linear_1701_2)"/>
<path d="M62.6299 17.5565C62.797 17.3813 63.0009 17.2412 63.2285 17.1454C63.4562 17.0495 63.7024 17 63.9514 17C64.2004 17 64.4467 17.0495 64.6743 17.1454C64.9019 17.2412 65.1059 17.3813 65.273 17.5565C66.1951 18.4884 67.0257 19.7198 67.7537 21.0291C69.9067 24.9696 71.0206 29.3469 70.9997 33.7857V80H57.0002V33.5908C56.9827 29.2747 58.0426 25.0161 60.0932 21.1638C61.0638 19.3637 61.9486 18.2368 62.6299 17.5565Z" fill="#E0E0E0"/>
<defs>
<linearGradient id="paint0_linear_1701_2" x1="64.0021" y1="87" x2="64.0021" y2="112" gradientUnits="userSpaceOnUse">
<stop stop-color="#E0E0E0"/>
<stop offset="0.31" stop-color="#FCCC63"/>
<stop offset="0.77" stop-color="#F55F44"/>
</linearGradient>
</defs>
</svg>
